<?xml version="1.0" standalone="no"?><!DOCTYPE svg PUBLIC "-//W3C//DTD SVG 1.1//EN" "http://www.w3.org/Graphics/SVG/1.1/DTD/svg11.dtd"><svg t="1706680926666" class="icon" viewBox="0 0 1053 1024" version="1.1" xmlns="http://www.w3.org/2000/svg" p-id="19528" xmlns:xlink="http://www.w3.org/1999/xlink" width="205.6640625" height="200"><path d="M474.600823 981.860082h-319.341564A154.271605 154.271605 0 0 1 0 828.444444V153.613169A154.337449 154.337449 0 0 1 155.127572 0.131687h593.251029a154.337449 154.337449 0 0 1 155.259259 153.481482v169.876543a40.888889 40.888889 0 0 1-81.777778 0v-169.876543a72.888889 72.888889 0 0 0-72.888889-72.823046H155.259259a72.823045 72.823045 0 0 0-73.415638 72.427984v675.028807a72.888889 72.888889 0 0 0 72.888889 72.823045h320.065844a40.427984 40.427984 0 0 1 3.555555 80.790123z" p-id="19529"></path><path d="M638.485597 307.09465H209.316872a40.559671 40.559671 0 1 1 0-81.053498h429.234568a40.559671 40.559671 0 1 1 0 81.053498zM405.135802 503.572016H209.119342a40.559671 40.559671 0 0 1 0-81.053497H405.596708a40.559671 40.559671 0 1 1 0 81.053497z m635.98354 180.674898L840.164609 482.502058a47.604938 47.604938 0 0 0-67.292181 0l-202.139918 202.139917a47.670782 47.670782 0 0 0 67.358025 67.358025l110.748971-112.987654v329.218107a55.769547 55.769547 0 0 0 111.539095 0v-329.218107l112.526749 112.987654a47.670782 47.670782 0 0 0 67.358024-67.358025z" p-id="19530"></path></svg>
