<?xml version="1.0" standalone="no"?><!DOCTYPE svg PUBLIC "-//W3C//DTD SVG 1.1//EN" "http://www.w3.org/Graphics/SVG/1.1/DTD/svg11.dtd"><svg t="1706680964371" class="icon" viewBox="0 0 1024 1024" version="1.1" xmlns="http://www.w3.org/2000/svg" p-id="20585" xmlns:xlink="http://www.w3.org/1999/xlink" width="200" height="200"><path d="M449.984 974.4C390.912 927.68 96 688 96 554.368v-256a286.08 286.08 0 0 1 49.664-161.28l13.824-20.288 23.232 8.128A219.008 219.008 0 0 0 256 138.368 416.448 416.448 0 0 0 441.984 53.76a123.52 123.52 0 0 1 140.032 0A416.192 416.192 0 0 0 768 138.368a219.008 219.008 0 0 0 73.28-13.44l23.232-8.128 13.824 20.288a286.08 286.08 0 0 1 49.664 161.28v256h-64v-256a221.952 221.952 0 0 0-26.56-105.344A267.712 267.712 0 0 1 768 202.368a448.32 448.32 0 0 1-222.016-95.808 60.16 60.16 0 0 0-67.968 0A448.512 448.512 0 0 1 256 202.368a267.712 267.712 0 0 1-69.44-9.344A221.952 221.952 0 0 0 160 298.368v256c0 79.616 202.24 269.056 329.664 369.728z" p-id="20586"></path><path d="M783.232 449.92l-25.6 52.224-49.92-8.512v253.248h-56.192v-19.84H391.424v19.84h-56.192V497.024l-50.56 9.664-25.536-52.224a849.408 849.408 0 0 0 207.808-52.288 409.856 409.856 0 0 1-72.128-56.768 570.88 570.88 0 0 1-73.792 55.68l-38.016-46.08a486.656 486.656 0 0 0 152.704-140.16l58.496 13.056-19.328 28.352h219.776v44.864a495.104 495.104 0 0 1-114.688 100.48 877.568 877.568 0 0 0 203.264 48.256z m-89.152 40.896a747.648 747.648 0 0 1-170.88-56.832 826.368 826.368 0 0 1-160.64 56.832zM391.424 584.512h101.696v-44.864H391.424z m0 92.48h101.696V631.04H391.424z m38.656-366.208a393.984 393.984 0 0 0 92.544 65.28 515.2 515.2 0 0 0 96.512-68.096h-186.24z m118.656 228.864v44.8h102.784v-44.8z m0 137.344h102.784V631.04H548.736zM960 986.688H512v-112a112.128 112.128 0 0 1 112-112h224a112.128 112.128 0 0 1 112 112zM586.688 912h298.624v-37.312a37.376 37.376 0 0 0-37.312-37.376h-224a37.376 37.376 0 0 0-37.312 37.376z" p-id="20587"></path><path d="M736 773.312a112 112 0 1 1 112-112 112.128 112.128 0 0 1-112 112z m0-149.312a37.312 37.312 0 1 0 37.312 37.312 37.376 37.376 0 0 0-37.312-37.312z" p-id="20588"></path></svg>
