<?xml version="1.0" standalone="no"?><!DOCTYPE svg PUBLIC "-//W3C//DTD SVG 1.1//EN" "http://www.w3.org/Graphics/SVG/1.1/DTD/svg11.dtd"><svg t="1693536676368" class="icon" viewBox="0 0 1024 1024" version="1.1" xmlns="http://www.w3.org/2000/svg" p-id="12453" xmlns:xlink="http://www.w3.org/1999/xlink" width="200" height="200"><path d="M1024 0H0v1024h1024V0z" fill="#FFFFFF" fill-opacity=".01" p-id="12454"></path><path d="M76.8 388.827429a51.2 51.2 0 0 1 51.2-51.2h768a51.2 51.2 0 1 1 0 102.4H128a51.2 51.2 0 0 1-51.2-51.2z" fill="#5A607F" p-id="12455"></path><path d="M617.910857 171.373714a51.2 51.2 0 0 1 71.899429-8.777143l237.714285 185.929143a51.2 51.2 0 0 1-63.049142 80.603429l-237.714286-185.856a51.2 51.2 0 0 1-8.777143-71.899429zM93.842286 638.537143a51.2 51.2 0 0 1 51.2-51.2h768a51.2 51.2 0 1 1 0 102.4h-768a51.2 51.2 0 0 1-51.2-51.2z" fill="#5A607F" p-id="12456"></path><path d="M105.837714 605.476571a51.2 51.2 0 0 1 72.192-6.144l220.672 185.929143a51.2 51.2 0 1 1-65.974857 78.262857L112.054857 677.741714a51.2 51.2 0 0 1-6.217143-72.192z" fill="#5A607F" p-id="12457"></path></svg>