<?xml version="1.0" standalone="no"?><!DOCTYPE svg PUBLIC "-//W3C//DTD SVG 1.1//EN" "http://www.w3.org/Graphics/SVG/1.1/DTD/svg11.dtd"><svg t="1691677572055" class="icon" viewBox="0 0 1024 1024" version="1.1" xmlns="http://www.w3.org/2000/svg" p-id="4911" xmlns:xlink="http://www.w3.org/1999/xlink" width="200" height="200"><path d="M795.574857 99.328l30.573714-10.24A45.641143 45.641143 0 1 0 797.257143 2.413714L660.114286 48.128a45.421714 45.421714 0 0 0-28.891429 57.782857l45.714286 137.142857a45.714286 45.714286 0 1 0 86.674286-28.964571l-11.190858-33.499429a413.769143 413.769143 0 0 1 174.592 337.042286A415.451429 415.451429 0 0 1 512 932.571429 45.714286 45.714286 0 0 0 512 1024a506.953143 506.953143 0 0 0 506.441143-506.368 505.051429 505.051429 0 0 0-222.866286-418.377143zM285.257143 753.883429a45.714286 45.714286 0 0 0-43.300572 47.981714l1.609143 31.378286a416.182857 416.182857 0 0 1-146.578285-315.611429A415.451429 415.451429 0 0 1 512 102.619429a45.714286 45.714286 0 1 0 0-91.428572A506.953143 506.953143 0 0 0 5.558857 517.632c0 148.918857 67.072 290.304 180.004572 386.048l-37.302858 1.901714a45.641143 45.641143 0 0 0 2.340572 91.428572c0.804571 0 1.609143 0 2.413714-0.146286l144.310857-7.387429a45.714286 45.714286 0 0 0 43.300572-47.981714l-7.314286-144.310857c-1.316571-25.234286-23.113143-45.494857-47.981714-43.300571z" fill="" p-id="4912"></path></svg>
