<?xml version="1.0" standalone="no"?><!DOCTYPE svg PUBLIC "-//W3C//DTD SVG 1.1//EN" "http://www.w3.org/Graphics/SVG/1.1/DTD/svg11.dtd"><svg t="1706682120879" class="icon" viewBox="0 0 1024 1024" version="1.1" xmlns="http://www.w3.org/2000/svg" p-id="8147" xmlns:xlink="http://www.w3.org/1999/xlink" width="200" height="200"><path d="M459.66513 202.513194H183.200489c-31.856008 0-57.170157 30.945836-57.170157 60.412643v641.329704c0 29.523693 25.826121 53.472585 57.625243 53.472585h506.965613c31.799122 0 67.011388-25.484806 67.011388-55.008499V484.09755h69.11616v420.214877c0 65.304816-66.101217 119.687573-136.127548 119.687573H183.655575C113.686129 1023.943114 56.914171 971.039387 56.914171 905.73457V261.446809c0-65.304816 56.259986-125.148603 126.286318-125.148603h276.464641v66.271873z m105.06794 344.727515a33.903894 33.903894 0 0 1 34.814066 32.823065 33.847008 33.847008 0 0 1-34.302094 33.391923H265.115938a33.903894 33.903894 0 0 1-34.814066-32.879951 33.847008 33.847008 0 0 1 34.302094-33.335037h300.072219z m-47.328926-205.698795a33.903894 33.903894 0 0 1 34.814066 32.936837 33.847008 33.847008 0 0 1-34.302094 33.335037H263.978223a33.903894 33.903894 0 0 1-34.814065-32.879951 33.847008 33.847008 0 0 1 34.302094-33.335037h253.994778z m-135.388034 391.94267a33.903894 33.903894 0 0 1 34.814066 32.936837 33.847008 33.847008 0 0 1-34.302094 33.335037H266.765624a33.903894 33.903894 0 0 1-34.814066-32.823065 33.847008 33.847008 0 0 1 34.302095-33.391923h115.762457zM634.247431 33.16438v110.472085a33.847008 33.847008 0 0 1-34.302095 33.391922 33.903894 33.903894 0 0 1-34.814066-32.936837V33.107494c0-18.260319 15.472918-33.107494 34.529638-33.107494 19.113605 0 34.586523 14.847175 34.586523 33.107494z m298.251875 358.095661h-115.193601a33.903894 33.903894 0 0 1-34.586523-33.16438c0-18.317205 15.472918-33.107494 34.586523-33.107494h115.193601c19.113605 0 34.586523 14.790289 34.586523 33.107494a33.847008 33.847008 0 0 1-34.586523 33.107494z m-64.053331-279.764013a32.140437 32.140437 0 0 1 0 46.87384l-81.517249 78.04722a35.610466 35.610466 0 0 1-48.807955-1.706572 32.140437 32.140437 0 0 1 0-45.053497l81.403478-78.160991a35.610466 35.610466 0 0 1 48.86484 0h0.056886z" fill="" p-id="8148"></path></svg>
