<?xml version="1.0" standalone="no"?><!DOCTYPE svg PUBLIC "-//W3C//DTD SVG 1.1//EN" "http://www.w3.org/Graphics/SVG/1.1/DTD/svg11.dtd"><svg t="1706680239042" class="icon" viewBox="0 0 1024 1024" version="1.1" xmlns="http://www.w3.org/2000/svg" p-id="6627" xmlns:xlink="http://www.w3.org/1999/xlink" width="200" height="200"><path d="M61.360536 1014.604851c-37.821234-19.916691-35.737405 9.287629-35.737405-502.602061 0-511.89481-2.083829-482.685369 35.737405-502.60206C78.256444 0.502218 101.972155 0.005581 508.24706 0.005581c472.624624 0 454.602322-1.203193 474.657254 31.692627 10.009545 16.414631 10.337224 25.190263 10.352583 279.345678L993.277377 573.442456h-66.462358l-1.331192-254.718612-1.326073-254.718612-413.437747-1.310713L97.28226 61.383806V962.560335h481.277377v61.439665H328.879078c-232.288014 0-250.919592-0.655356-267.518542-9.395149z m810.681022-73.3948l-77.669977-77.669976-32.388943 14.59704c-66.708116 30.074716-156.302508 20.838286-213.303158-21.9954-92.773894-69.70842-119.32095-191.932394-63.825572-293.891518 18.831257-34.600771 61.782703-73.3948 102.619601-92.697095 31.323989-14.801839 39.218986-16.358311 83.245626-16.394151 58.879679-0.04608 89.84527 9.471948 132.126 40.596259C857.459877 533.962351 890.877935 601.842941 890.877935 672.580475c0 46.248708-14.146483 95.38508-36.249402 125.900114l-15.887274 21.923721 77.270619 77.849175C996.927917 979.778801 1002.580366 989.09715 983.037433 1008.640084c-19.942291 19.942291-29.31696 14.243762-110.995875-67.430033z m-128.152902-123.560286c32.035665-14.842799 65.638042-47.851259 81.356357-79.927885 8.806352-17.971102 11.514817-32.486223 11.530177-61.879983 0.03072-50.764523-14.300082-83.455545-51.47108-117.43168C680.87716 462.973938 506.880028 534.842986 506.880028 673.420151c0 116.658564 128.152902 194.645979 237.003508 144.229614zM235.521507 609.28226v-30.719832h175.190085l-2.764785 11.519937c-1.520632 6.338525-4.331496 20.16245-6.246366 30.719832l-3.481581 19.199896H235.521507z m-5.119972-127.999302v-30.719833l142.079225 0.02048c141.024511 0.01536 141.966586 0.08704 126.71931 9.625548-8.447954 5.288931-24.468347 19.102616-35.599166 30.704472L443.361654 512.00279H230.401535z m0-127.999303v-30.719832h552.956986v61.439665H230.401535z m5.119972-127.999302v-30.719833h547.837014v61.439666H235.521507z" p-id="6628"></path></svg>
