<?xml version="1.0" standalone="no"?><!DOCTYPE svg PUBLIC "-//W3C//DTD SVG 1.1//EN" "http://www.w3.org/Graphics/SVG/1.1/DTD/svg11.dtd"><svg t="1706680795854" class="icon" viewBox="0 0 1024 1024" version="1.1" xmlns="http://www.w3.org/2000/svg" p-id="18452" xmlns:xlink="http://www.w3.org/1999/xlink" width="200" height="200"><path d="M880.42328 64.112875C757.61552 21.671958 634.80776 0 512 0 389.19224 0 266.38448 21.671958 143.57672 64.112875c-43.343915 15.35097-72.239859 57.791887-72.239859 106.553792v486.716049c0 28.895944 10.835979 56.888889 29.798941 77.657848 174.27866 192.338624 309.728395 288.959436 410.864198 288.959436 101.135802 0 236.585538-96.620811 410.864198-288.959436 18.962963-20.768959 29.798942-48.761905 29.798941-77.657848V170.666667c-0.902998-48.761905-29.798942-91.202822-72.239859-106.553792z m30.70194 593.269841c0 18.962963-7.223986 37.022928-18.962963 49.664903-165.248677 183.308642-293.474427 275.414462-380.162257 275.414462S297.08642 890.356261 131.837743 707.047619c-11.738977-13.544974-18.962963-31.604938-18.962963-49.664903V170.666667c0-30.70194 18.059965-57.791887 45.149911-67.724868 117.389771-41.537919 236.585538-62.306878 354.878307-62.306878S748.585538 62.306878 866.878307 102.941799c27.089947 9.029982 45.149912 36.119929 45.149912 67.724868v486.716049z" p-id="18453"></path><path d="M669.121693 278.123457v-28.895944H468.656085c8.126984-10.835979 15.35097-22.574956 23.477954-35.216931l-35.216931-8.126984c-35.216931 55.985891-82.17284 102.941799-137.255732 136.352734l22.574956 29.798941c24.380952-17.156966 47.858907-35.216931 69.530864-56.888889 23.477954 25.283951 49.664903 47.858907 78.560846 65.918872-55.082892 26.186949-119.195767 45.149912-193.241622 56.888889l15.35097 33.410934c81.269841-14.447972 152.606702-37.925926 213.107584-69.530864 56.888889 30.70194 126.419753 52.373898 207.689594 65.918871l15.35097-33.410934c-73.142857-10.835979-135.449735-27.089947-188.726631-51.4709 42.440917-30.70194 79.463845-65.015873 109.262786-104.747795zM523.738977 363.005291c-35.216931-19.865961-65.918871-43.343915-90.299824-70.433862l9.932981-10.835979h182.405644c-28.895944 30.70194-63.209877 57.791887-102.038801 81.269841z" p-id="18454"></path><path d="M367.520282 696.21164h34.313933v-23.477954h242.906526v23.477954h34.313933V465.94709H367.520282v230.26455z m171.569665-198.659612h104.747796v55.985891H539.089947v-55.985891z m0 86.687831h104.747796v55.985891H539.089947v-55.985891z m-137.255732-86.687831H505.679012v55.985891H401.834215v-55.985891z m0 86.687831H505.679012v55.985891H401.834215v-55.985891z" p-id="18455"></path></svg>
