<?xml version="1.0" standalone="no"?><!DOCTYPE svg PUBLIC "-//W3C//DTD SVG 1.1//EN" "http://www.w3.org/Graphics/SVG/1.1/DTD/svg11.dtd"><svg t="1706680705781" class="icon" viewBox="0 0 1024 1024" version="1.1" xmlns="http://www.w3.org/2000/svg" p-id="15527" xmlns:xlink="http://www.w3.org/1999/xlink" width="200" height="200"><path d="M767.999947 575.99996a191.999987 191.999987 0 1 1-191.999987 191.999987 191.999987 191.999987 0 0 1 191.999987-191.999987m0-63.999996a255.999982 255.999982 0 1 0 255.999982 255.999983 255.999982 255.999982 0 0 0-255.999982-255.999983z" p-id="15528"></path><path d="M739.555504 0H156.444434A156.444434 156.444434 0 0 0 0 156.444434v711.111061a156.444434 156.444434 0 0 0 156.444434 156.444434h259.555537a31.928887 31.928887 0 0 0 31.999998-31.999998 31.928887 31.928887 0 0 0-31.999998-31.999998H156.444434a92.444438 92.444438 0 0 1-92.444438-92.444438V156.444434A92.444438 92.444438 0 0 1 156.444434 63.999996h583.11107a92.444438 92.444438 0 0 1 92.444438 92.444438v259.555537a31.928887 31.928887 0 0 0 31.999998 31.999998 31.928887 31.928887 0 0 0 31.999998-31.999998V156.444434a156.444434 156.444434 0 0 0-156.444434-156.444434z" p-id="15529"></path><path d="M191.999987 191.999987m31.999997 0l447.999969 0q31.999998 0 31.999998 31.999997l0 0q0 31.999998-31.999998 31.999998l-447.999969 0q-31.999998 0-31.999997-31.999998l0 0q0-31.999998 31.999997-31.999997Z" p-id="15530"></path><path d="M191.999987 447.999969m31.999997 0l255.999983 0q31.999998 0 31.999997 31.999998l0 0q0 31.999998-31.999997 31.999997l-255.999983 0q-31.999998 0-31.999997-31.999997l0 0q0-31.999998 31.999997-31.999998Z" p-id="15531"></path><path d="M191.999987 703.999951m31.999997 0l127.999992 0q31.999998 0 31.999997 31.999998l0 0q0 31.999998-31.999997 31.999998l-127.999992 0q-31.999998 0-31.999997-31.999998l0 0q0-31.999998 31.999997-31.999998Z" p-id="15532"></path><path d="M767.999947 895.999938a21.333332 21.333332 0 0 1-21.333332-21.333332V640.639956a21.333332 21.333332 0 0 1 42.666664 0V874.666606a21.333332 21.333332 0 0 1-21.333332 21.333332z" p-id="15533"></path><path d="M881.777717 775.537724a21.333332 21.333332 0 0 1-15.075555-6.257777L767.999947 670.791065l-98.488882 98.488882a21.333332 21.333332 0 0 1-30.151109-30.151109l113.777769-113.77777a21.902221 21.902221 0 0 1 30.151109 0l113.77777 113.77777a21.333332 21.333332 0 0 1 0 30.151109 21.333332 21.333332 0 0 1-15.288887 6.257777z" p-id="15534"></path></svg>
