<?xml version="1.0" standalone="no"?><!DOCTYPE svg PUBLIC "-//W3C//DTD SVG 1.1//EN" "http://www.w3.org/Graphics/SVG/1.1/DTD/svg11.dtd"><svg t="1706681223022" class="icon" viewBox="0 0 1024 1024" version="1.1" xmlns="http://www.w3.org/2000/svg" p-id="22599" xmlns:xlink="http://www.w3.org/1999/xlink" width="200" height="200"><path d="M625.841393 224.681879a293.344329 293.344329 0 0 0-315.028921 60.234975 275.273837 275.273837 0 0 0-63.849074 307.198374 293.344329 293.344329 0 0 0 471.037507 93.364211 275.876187 275.876187 0 0 0 84.931315-199.377768 280.694985 280.694985 0 0 0-177.090827-261.419792z m28.310438 397.550836a199.377768 199.377768 0 0 1-140.347492 54.813828 196.968369 196.968369 0 0 1-180.704926-120.469951 190.342522 190.342522 0 0 1 43.369182-210.220063A201.184817 201.184817 0 0 1 590.302757 307.203795a192.149571 192.149571 0 0 1 63.849074 315.02892z" fill="" p-id="22600"></path><path d="M1023.994579 958.946227l-142.756891-130.709896A481.879802 481.879802 0 0 0 979.420697 301.180297a518.623137 518.623137 0 0 0-107.820605-157.213285A514.406688 514.406688 0 0 0 519.225486 0.005421h-5.421147A503.564393 503.564393 0 0 0 162.634433 140.352913 474.049255 474.049255 0 0 0 55.416177 297.566199a481.879802 481.879802 0 0 0 0 380.685043 490.915048 490.915048 0 0 0 95.171261 143.961591L0 958.343877 60.234975 1024l156.008586-142.154542a505.371442 505.371442 0 0 0 301.174876 96.978311h3.614099a492.722097 492.722097 0 0 0 190.944871-35.538636 507.780841 507.780841 0 0 0 101.797108-56.018527L963.759604 1024z m-348.760507-98.18301a421.644827 421.644827 0 0 1-158.417985 28.912788 413.21193 413.21193 0 0 1-289.73023-116.855852 398.755536 398.755536 0 0 1-87.943064-440.920018 390.322639 390.322639 0 0 1 87.943064-128.300498 414.41663 414.41663 0 0 1 287.320831-114.446453h4.216449a402.971984 402.971984 0 0 1 157.213285 31.322188 404.176684 404.176684 0 0 1 131.312246 85.533664 421.644827 421.644827 0 0 1 88.545414 128.902847 395.141437 395.141437 0 0 1-88.545414 440.317669 395.743787 395.743787 0 0 1-131.914596 85.533665z" fill="" p-id="22601"></path></svg>
