<?xml version="1.0" standalone="no"?><!DOCTYPE svg PUBLIC "-//W3C//DTD SVG 1.1//EN" "http://www.w3.org/Graphics/SVG/1.1/DTD/svg11.dtd"><svg t="1706681321394" class="icon" viewBox="0 0 1024 1024" version="1.1" xmlns="http://www.w3.org/2000/svg" p-id="29926" xmlns:xlink="http://www.w3.org/1999/xlink" width="200" height="200"><path d="M711.68 554.496c-101.376 0-183.808 82.432-183.808 183.808s82.432 183.808 183.808 183.808 183.808-82.432 183.808-183.808-82.432-183.808-183.808-183.808z m0 306.688c-67.584 0-122.368-54.784-122.368-122.368s54.784-122.368 122.368-122.368 122.368 54.784 122.368 122.368c0 67.072-54.784 122.368-122.368 122.368zM1007.104 964.608l-112.64-94.208c-13.312-10.752-32.768-8.704-43.52 4.096-10.752 13.312-8.704 32.768 4.096 43.52l112.64 94.208c5.632 4.608 12.288 7.168 19.456 7.168 8.704 0 17.408-3.584 24.064-11.264 10.752-13.312 8.704-33.28-4.096-43.52z" fill="" p-id="29927"></path><path d="M526.848 957.952H87.552c-11.264 0-20.48-9.216-20.48-20.48V86.016c0-11.264 9.216-20.48 20.48-20.48h546.816v181.248c0 16.896 13.824 30.72 30.72 30.72h220.16v294.4c0 16.896 13.824 30.72 30.72 30.72s30.72-13.824 30.72-30.72V251.904c0-8.192-3.072-16.384-9.216-22.016l-225.28-217.088C706.56 7.168 698.88 4.096 690.688 4.096H87.552c-45.056 0-81.92 36.864-81.92 81.92v851.456c0 45.056 36.864 81.92 81.92 81.92h439.296c16.896 0 30.72-13.824 30.72-30.72s-13.824-30.72-30.72-30.72z m168.96-875.52l139.776 133.632h-139.776V82.432z" fill="" p-id="29928"></path><path d="M183.808 354.304h235.52c16.896 0 30.72-13.824 30.72-30.72s-13.824-30.72-30.72-30.72h-235.52c-16.896 0-30.72 13.824-30.72 30.72s13.824 30.72 30.72 30.72zM542.208 456.704c0-16.896-13.824-30.72-30.72-30.72h-327.68c-16.896 0-30.72 13.824-30.72 30.72s13.824 30.72 30.72 30.72h327.68c16.896 0 30.72-13.824 30.72-30.72zM501.248 589.824c0-16.896-13.824-30.72-30.72-30.72h-286.72c-16.896 0-30.72 13.824-30.72 30.72s13.824 30.72 30.72 30.72h286.72c16.896 0 30.72-13.824 30.72-30.72zM183.808 692.736c-16.896 0-30.72 13.824-30.72 30.72s13.824 30.72 30.72 30.72h235.52c16.896 0 30.72-13.824 30.72-30.72s-13.824-30.72-30.72-30.72h-235.52z" fill="" p-id="29929"></path></svg>
