<?xml version="1.0" standalone="no"?><!DOCTYPE svg PUBLIC "-//W3C//DTD SVG 1.1//EN" "http://www.w3.org/Graphics/SVG/1.1/DTD/svg11.dtd"><svg t="1706680120705" class="icon" viewBox="0 0 1024 1024" version="1.1" xmlns="http://www.w3.org/2000/svg" p-id="6474" xmlns:xlink="http://www.w3.org/1999/xlink" width="200" height="200"><path d="M611.94 938.47H75.08V158.38h894v427.84h-64V222.38h-766v652.09h472.86z" p-id="6475"></path><path d="M296.3 108.16h64V256.4h-64zM680.4 108.16h64V256.4h-64zM117.87 297.82h823.88v64H117.87zM239.9 484.38h109.76v64H239.9zM419.62 484.38h384.64v64H419.62zM239.9 670.18h109.76v64H239.9zM419.62 670.18h160.03v64H419.62z" p-id="6476"></path><path d="M773.85 890.69c-82.96 0-150.46-67.5-150.46-150.46 0-82.97 67.5-150.46 150.46-150.46 82.97 0 150.46 67.5 150.46 150.46 0.01 82.97-67.49 150.46-150.46 150.46z m0-236.92c-47.67 0-86.46 38.79-86.46 86.46 0 47.67 38.79 86.46 86.46 86.46 47.68 0 86.46-38.79 86.46-86.46 0.01-47.68-38.78-86.46-86.46-86.46z" p-id="6477"></path><path d="M840.73 855.38l45.254-45.254 83.084 83.084-45.255 45.255z" p-id="6478"></path></svg>
